<?xml version="1.0" encoding="utf-8"?>
<svg xmlns="http://www.w3.org/2000/svg" viewBox="-8.86 125.923 499.9998 119.894" width="500px" height="119.894px" xmlns:bx="https://boxy-svg.com" preserveAspectRatio="none"><defs><bx:export><bx:file format="svg"/></bx:export></defs><g id="object-0"><title>Logo</title><g><title>mrbubbles</title><path d="M 89.378 125.923 L 98.909 125.923 L 98.909 146.519 L 101.917 144.102 C 104.808 141.779 105.174 141.685 111.385 141.685 C 117.384 141.685 118.065 141.842 120.947 143.884 C 122.738 145.154 125.011 147.787 126.325 150.116 C 128.409 153.808 128.599 154.703 128.582 160.746 C 128.561 168.135 127.489 171.212 123.573 175.124 C 117.318 181.372 106.609 182.113 100.925 176.691 L 98.909 174.768 L 98.909 179.441 L 89.378 179.441 Z M 104.04 150.299 C 97.415 154.822 97.067 166.735 103.447 170.624 C 108.438 173.667 115.061 172.037 118.181 166.998 C 120.362 163.477 120.406 156.907 118.269 154.02 C 115.902 150.822 112.222 148.649 109.173 148.649 C 107.561 148.649 105.474 149.32 104.04 150.299 Z" stroke="none" fill-rule="evenodd" style="fill: #efb100;"/><path d="M 368.696 158.021 L 368.698 161.161 L 376.946 160.953 L 385.193 160.746 L 385.418 158.041 L 385.643 155.338 L 377.169 155.109 L 368.695 154.881 L 368.696 158.021" stroke="none" fill-rule="evenodd" style="fill: #efb100;"/><path d="M 466.103 143.361 C 458.865 147.122 455.005 155.724 456.624 164.486 C 458.476 174.502 465.313 180.174 475.537 180.174 C 481.873 180.174 485.97 178.244 489.008 173.829 C 490.244 172.032 491.085 170.119 490.877 169.576 C 490.669 169.034 489.126 168.358 487.45 168.075 C 484.802 167.628 484.146 167.804 482.451 169.422 C 479.451 172.283 476.93 172.98 473.086 172.013 C 468.456 170.846 466.022 167.514 465.606 161.772 C 465.23 156.56 466.238 153.813 469.618 150.845 C 474.008 146.991 479.927 148.148 482.888 153.44 C 483.618 154.744 483.945 154.779 487.2 153.909 C 489.137 153.39 490.858 152.83 491.024 152.664 C 491.679 152.009 489.441 147.989 487.231 145.85 C 481.997 140.784 473.085 139.735 466.103 143.361" stroke="none" fill-rule="evenodd" style="fill: #efb100;"/><path d="M 430.229 142.051 C 430.202 142.253 430.202 150.665 430.23 160.746 L 430.28 179.074 L 434.673 179.292 L 439.067 179.51 L 439.015 168.187 C 438.973 159.088 439.196 156.411 440.155 154.557 C 441.902 151.179 445.3 149.388 449.97 149.385 C 453.249 149.383 453.824 149.191 453.452 148.223 C 453.207 147.585 453.007 145.77 453.007 144.191 L 453.007 141.318 L 448.878 141.318 C 444.981 141.318 444.57 141.498 441.547 144.52 L 438.345 147.723 L 438.345 144.955 L 438.345 142.187 L 434.312 141.936 C 432.093 141.798 430.256 141.85 430.229 142.051" stroke="none" fill-rule="evenodd" style="fill: #efb100;"/><path d="M 399.788 142.433 C 396.18 144.016 392.891 148.251 392.891 151.314 C 392.891 157.716 396.773 161.058 407.187 163.622 C 410.009 164.317 412.896 165.407 413.602 166.045 C 415.394 167.665 415.215 170.403 413.235 171.639 C 408.992 174.287 403.197 173.576 399.817 169.994 C 397.991 168.061 397.64 167.963 394.95 168.647 C 392.343 169.308 392.097 169.567 392.509 171.208 C 394.445 178.924 407.396 182.981 416.122 178.605 C 420.033 176.644 422.122 174.16 422.89 170.553 C 423.509 167.653 422.577 163.526 420.86 161.558 C 419.376 159.858 412.874 156.731 410.803 156.721 C 409.968 156.717 407.597 156.212 405.531 155.599 C 399.879 153.921 399.582 150.506 404.895 148.272 C 407.736 147.078 412.405 148.274 413.919 150.584 C 415.14 152.448 417.247 152.774 420.382 151.582 L 422.31 150.849 L 420.613 147.806 C 418.272 143.605 413.349 141.313 406.82 141.385 C 404.199 141.414 401.034 141.886 399.788 142.433" stroke="none" fill-rule="evenodd" style="fill: #efb100;"/><path d="M 339.006 142.357 C 332.875 145.094 330.098 152.659 333.482 157.409 C 335.418 160.129 339.042 162.06 344.505 163.282 C 351.313 164.805 353.324 165.711 353.761 167.447 C 354.488 170.346 353.44 171.881 350.091 172.817 C 345.267 174.169 338.64 171.784 338.64 168.697 C 338.64 168.154 338.266 167.711 337.809 167.711 C 337.029 167.711 331.21 169.257 330.716 169.596 C 329.936 170.131 333.032 175.155 335.08 176.677 C 338.577 179.275 341.788 180.174 347.576 180.174 C 359.339 180.174 365.616 171.802 360.889 162.417 C 359.541 159.74 357.883 158.928 349.288 156.742 C 343.196 155.192 341.819 154.575 341.041 153.048 C 340.202 151.401 340.297 151.048 341.981 149.566 C 343.333 148.374 344.775 147.916 347.168 147.916 C 349.929 147.916 350.871 148.31 352.809 150.272 C 355.038 152.528 355.89 152.737 359.617 151.937 C 363.38 151.129 358.25 143.616 352.927 142.138 C 348.973 141.04 341.7 141.155 339.006 142.357" stroke="none" fill-rule="evenodd" style="fill: #efb100;"/><path d="M 307.482 141.341 C 311.841 141.334 313.186 141.66 316.409 143.509 C 319.582 145.328 320.582 146.451 322.502 150.353 C 324.322 154.049 324.752 155.769 324.572 158.616 L 324.344 162.212 L 310.955 162.412 L 297.565 162.612 L 298.029 164.612 C 299.888 172.628 309.52 175.57 315.225 169.864 C 316.672 168.418 317.049 168.366 320.02 169.197 C 322.06 169.768 323.244 170.519 323.244 171.24 C 323.244 171.866 321.627 173.938 319.651 175.843 C 316.794 178.597 315.253 179.471 312.136 180.109 C 296.666 183.276 285.184 169.846 289.87 154.066 C 291.214 149.545 295.444 144.487 299.377 142.701 C 301.349 141.805 304.078 141.347 307.482 141.341 Z M 303.45 149.19 C 301.001 150.423 297.493 155.4 298.42 156.327 C 298.658 156.566 302.842 156.668 307.716 156.554 L 316.578 156.347 L 315.262 153.415 C 313.206 148.83 307.921 146.94 303.45 149.19 Z" stroke="none" fill-rule="evenodd" style="fill: #efb100;"/><path d="M 135.781 142.545 C 135.6 143.018 135.559 149.781 135.692 157.574 C 135.922 171.197 136.001 171.845 137.726 174.394 C 140.622 178.673 143.453 180.195 148.654 180.267 C 153.357 180.334 155.288 179.552 159.061 176.051 L 160.929 174.317 L 160.63 176.879 L 160.331 179.441 L 164.81 179.441 L 169.289 179.441 L 169.289 160.746 L 169.289 142.051 L 164.89 142.051 L 160.491 142.051 L 160.491 153.487 C 160.491 162.553 160.243 165.447 159.293 167.449 C 157.049 172.178 150.317 173.732 146.896 170.309 C 144.912 168.327 144.969 168.816 144.823 152.419 L 144.729 141.894 L 140.42 141.789 C 137.712 141.724 135.988 142.004 135.781 142.545" stroke="none" fill-rule="evenodd" style="fill: #efb100;"/><path d="M 63.169 141.858 L 59.32 142.128 L 59.32 160.719 L 59.32 179.31 L 63.648 179.559 L 67.975 179.807 L 68.256 168.444 C 68.48 159.379 68.798 156.592 69.829 154.665 C 71.626 151.308 75.068 149.388 79.298 149.385 L 82.78 149.383 L 82.78 145.35 L 82.78 141.318 L 79.445 141.318 C 75.39 141.318 72.53 142.705 70.023 145.886 L 68.134 148.283 L 68.126 144.8 C 68.122 142.885 67.871 141.379 67.568 141.454 C 67.265 141.529 65.286 141.71 63.169 141.858" stroke="none" fill-rule="evenodd" style="fill: #efb100;"/><path d="M -4.644 141.905 L -8.86 142.125 L -8.86 160.783 L -8.86 179.441 L -4.156 179.441 L 0.547 179.441 L 0.7919999999999999 167.029 C 1.059 153.492 1.419 152.27 5.938 149.552 C 8.587 147.959 12.812 149.011 14.862 151.774 C 16.24 153.629 16.368 154.871 16.399 166.617 L 16.433 179.436 L 20.54 179.438 L 24.647 179.441 L 25.117 173.392 C 25.376 170.065 25.59 164.532 25.592 161.096 C 25.597 155.235 25.733 154.683 27.803 152.172 C 31.669 147.482 37.127 147.884 39.708 153.049 C 40.771 155.175 40.99 157.654 40.991 167.527 L 40.992 179.441 L 45.391 179.441 L 49.79 179.441 L 49.79 165.655 C 49.79 152.425 49.716 151.722 47.959 148.196 C 45.585 143.431 42.021 141.318 36.358 141.318 C 31.184 141.318 28.873 142.214 25.889 145.379 L 23.496 147.916 L 21.995 145.807 C 17.675 139.74 6.059 139.817 1.77 145.94 C 0.707 147.457 0.6709999999999999 147.419 0.6709999999999999 144.824 C 0.6709999999999999 143.347 0.42300000000000004 142.036 0.12100000000000001 141.911 C -0.181 141.787 -2.326 141.784 -4.644 141.905" stroke="none" fill-rule="evenodd" style="fill: #efb100;"/><path d="M 271.481 127.082 C 271.726 127.72 271.926 139.762 271.926 153.841 L 271.926 179.441 L 276.325 179.441 L 280.723 179.441 L 280.723 152.682 L 280.723 125.923 L 275.88 125.923 C 271.764 125.923 271.103 126.097 271.481 127.082" stroke="none" fill-rule="evenodd" style="fill: #efb100;"/><path d="M 225.006 125.923 L 233.803 125.923 L 233.803 147.471 L 236.186 145.265 C 239.407 142.283 241.941 141.318 246.558 141.318 C 251.926 141.318 254.905 142.473 258.543 145.962 C 262.725 149.975 264.238 154.13 264.19 161.479 C 264.144 168.561 262.647 171.939 257.577 176.401 C 253.754 179.767 251.187 180.494 244.768 180.029 C 241.347 179.782 239.666 179.204 237.095 177.392 L 233.803 175.072 L 233.803 177.257 C 233.803 179.437 233.797 179.441 229.405 179.441 L 225.006 179.441 Z M 240.728 149.352 C 239.899 149.688 238.211 151.114 236.975 152.522 C 232.943 157.113 233.138 165.184 237.383 169.43 C 239.236 171.282 240.292 171.688 243.849 171.917 C 249.327 172.269 252.355 170.515 254.452 165.776 C 258.652 156.281 249.794 145.681 240.728 149.352 Z" stroke="none" fill-rule="evenodd" style="fill: #efb100;"/><path d="M 178.819 125.923 L 187.617 125.923 L 187.62 136.736 L 187.624 147.55 L 189.27 145.548 C 191.507 142.827 195.534 141.318 200.558 141.318 C 210.945 141.318 217.675 149.116 217.675 161.154 C 217.675 167.247 216.368 170.484 212.043 175.108 C 208.346 179.061 205.616 180.163 199.507 180.169 C 195.119 180.174 191.568 178.908 189.519 176.609 C 187.618 174.475 187.029 174.639 187.25 177.241 L 187.437 179.441 L 178.819 179.441 Z M 193.032 150.047 C 188.56 152.774 186.391 160.482 188.622 165.718 C 190.327 169.721 192.975 171.58 197.504 171.955 C 201.056 172.25 201.853 172.049 204.185 170.271 C 208.998 166.6 210.197 160.375 207.228 154.487 C 204.493 149.063 197.984 147.027 193.032 150.047 Z" stroke="none" fill-rule="evenodd" style="fill: #efb100;"/></g><g><title>fullstack</title><path d="M 433.029 220.267 C 431.895 220.564 431.746 221.653 431.746 229.713 L 431.746 238.823 L 433.507 238.823 C 435.212 238.823 435.274 238.623 435.523 232.355 C 435.81 225.09 436.868 223.184 440.614 223.184 C 442.356 223.184 442.743 222.872 442.743 221.473 C 442.743 219.248 440.05 219.153 437.344 221.282 L 435.412 222.801 L 435.412 221.282 C 435.412 219.734 435.282 219.679 433.029 220.267" stroke="none" fill-rule="evenodd" style="paint-order: fill; fill: #e7000b;"/><path d="M 424.036 220.921 C 425.952 222.176 428.499 227.878 427.873 229.51 C 427.576 230.285 425.962 230.459 420.819 230.272 C 414.962 230.058 414.151 230.178 414.151 231.263 C 414.151 231.942 414.868 233.261 415.745 234.194 C 417.657 236.228 422.217 236.518 424.015 234.72 C 425.306 233.429 427.645 233.889 427.169 235.342 C 427.003 235.845 425.739 237.029 424.359 237.972 C 420.997 240.268 416.401 239.848 413.399 236.972 C 408.836 232.6 409.562 223.703 414.711 220.91 C 417.361 219.472 421.832 219.477 424.036 220.921 Z M 415.745 224.391 C 413.119 227.188 413.685 227.827 418.794 227.827 C 421.349 227.827 423.622 227.643 423.847 227.417 C 424.699 226.566 423.486 224.308 421.752 223.517 C 419.052 222.286 417.513 222.511 415.745 224.391 Z" stroke="none" fill-rule="evenodd" style="paint-order: fill; fill: #e7000b;"/><path d="M 388.492 219.762 L 390.325 219.762 C 391.466 219.762 392.158 220.178 392.158 220.862 C 392.158 222.23 392.849 222.224 394.68 220.838 C 397.09 219.017 401.349 219.48 404.005 221.852 C 406.037 223.668 406.386 224.52 406.662 228.333 C 407.039 233.539 405.693 236.765 402.446 238.444 C 399.63 239.9 398.17 239.848 394.878 238.169 L 392.158 236.782 L 392.158 241.403 C 392.158 245.41 391.987 245.992 390.875 245.779 C 390.17 245.644 389.345 245.509 389.042 245.478 C 388.739 245.446 388.492 239.648 388.492 232.592 Z M 395.823 223.572 C 392.478 224.809 392.036 226.337 392.829 233.912 C 392.863 234.236 394.029 234.975 395.422 235.557 C 400.023 237.48 403.155 235.028 403.155 229.504 C 403.155 224.635 399.953 222.044 395.823 223.572 Z" stroke="none" fill-rule="evenodd" style="paint-order: fill; fill: #e7000b;"/><path d="M 375.124 219.808 C 377.696 219.77 378.735 220.206 380.989 222.272 C 383.569 224.636 383.727 225.036 383.727 229.183 C 383.727 234.607 382.009 237.289 377.627 238.705 C 375.072 239.532 374.091 239.526 371.46 238.672 C 368.869 237.832 368.036 237.068 366.614 234.229 C 365.269 231.544 365.004 230.164 365.392 227.868 C 365.946 224.589 368.112 221.425 370.449 220.481 C 371.3 220.137 373.404 219.834 375.124 219.808 Z M 371.437 223.611 C 368.642 225.734 368.264 231.747 370.745 234.608 C 371.438 235.406 372.902 235.891 374.623 235.891 C 379.5 235.891 381.928 230.655 379.358 225.684 C 377.889 222.844 373.842 221.785 371.437 223.611 Z" stroke="none" fill-rule="evenodd" style="paint-order: fill; fill: #e7000b;"/><path d="M 352.382 226.008 C 353.758 230.491 353.152 230.986 346.995 230.409 C 338.91 229.651 337.34 230.698 340.698 234.608 C 342.122 236.266 347.209 236.324 349.002 234.703 C 350.412 233.426 352.88 233.858 352.401 235.297 C 351.074 239.276 341.792 240.663 338.32 237.401 C 334.024 233.365 334.056 226.258 338.388 222.173 C 343.213 217.622 350.414 219.595 352.382 226.008 Z M 341.003 223.836 C 340.106 224.464 339.373 225.618 339.373 226.402 C 339.373 227.677 339.912 227.827 344.505 227.827 C 350.127 227.827 350.648 227.305 347.837 224.495 C 345.771 222.428 343.346 222.195 341.003 223.836 Z" stroke="none" fill-rule="evenodd" style="paint-order: fill; fill: #e7000b;"/><path d="M 316.293 221.412 C 316.795 223.144 318.538 227.997 321.113 234.833 C 322.485 238.474 322.851 238.884 324.552 238.682 C 326.247 238.482 326.791 237.576 329.534 230.392 C 331.227 225.957 332.842 221.768 333.123 221.084 C 333.538 220.076 333.255 219.869 331.634 219.994 C 329.845 220.132 329.427 220.729 327.679 225.637 C 324.465 234.661 324.504 234.646 322.17 227.7 C 319.828 220.733 319.225 219.762 317.24 219.762 C 316.108 219.762 315.913 220.102 316.293 221.412" stroke="none" fill-rule="evenodd" style="paint-order: fill; fill: #e7000b;"/><path d="M 310.298 221.268 C 312.294 222.838 314.201 227.7 313.518 229.479 C 313.223 230.248 311.513 230.522 306.772 230.56 C 303.279 230.588 300.265 230.767 300.075 230.957 C 299.126 231.906 301.713 235.197 304.001 235.952 C 306.213 236.682 306.799 236.592 308.628 235.24 C 312.936 232.054 314.728 234.29 310.631 237.738 C 308.608 239.441 307.792 239.667 304.743 239.374 C 300.452 238.962 297.894 236.828 296.793 232.741 C 295.433 227.689 297.067 222.869 300.893 220.651 C 303.288 219.263 308.155 219.582 310.298 221.268 Z M 301.584 224.495 C 298.768 227.31 299.293 227.827 304.965 227.827 C 309.995 227.827 310.132 227.778 309.657 226.177 C 308.542 222.421 304.499 221.579 301.584 224.495 Z" stroke="none" fill-rule="evenodd" style="paint-order: fill; fill: #e7000b;"/><path d="M 225.113 219.792 C 228.092 219.766 228.797 220.077 230.725 222.274 C 232.917 224.77 234.403 228.945 233.438 229.895 C 233.161 230.169 229.912 230.392 226.22 230.392 C 219.913 230.392 219.523 230.481 219.757 231.859 C 219.894 232.665 220.523 233.903 221.153 234.608 C 222.584 236.208 227.398 236.326 228.672 234.791 C 229.74 233.503 232.034 233.34 232.751 234.501 C 233.751 236.118 229.724 239.008 225.988 239.356 C 221.398 239.785 217.899 237.578 216.421 233.325 C 214.798 228.653 216.426 222.693 219.832 220.841 C 220.863 220.28 223.24 219.808 225.113 219.792 Z M 221.34 224.161 C 218.535 226.966 219.381 227.827 224.937 227.827 C 229.665 227.827 229.975 227.728 229.611 226.338 C 228.708 222.885 223.887 221.615 221.34 224.161 Z" stroke="none" fill-rule="evenodd" style="paint-order: fill; fill: #e7000b;"/><path d="M 135.724 220.907 C 133.283 222.616 131.897 225.865 131.925 229.806 C 131.956 233.962 133.043 236.193 135.981 238.13 C 138.564 239.832 142.191 239.959 145.11 238.45 C 146.982 237.481 148.761 235.365 148.761 234.106 C 148.761 233.126 145.604 233.814 143.725 235.203 C 139.707 238.174 135.565 235.26 135.565 229.463 C 135.565 223.869 140.872 220.671 144.363 224.161 C 145.922 225.72 148.761 226.157 148.761 224.838 C 148.761 224.404 147.797 223.084 146.618 221.905 C 144.838 220.125 143.873 219.762 140.916 219.762 C 138.878 219.762 136.66 220.251 135.724 220.907" stroke="none" fill-rule="evenodd" style="paint-order: fill; fill: #e7000b;"/><path d="M 120.386 219.784 C 123.159 219.767 124.282 220.142 125.701 221.562 C 127.383 223.244 127.501 223.864 127.501 231.049 C 127.501 235.277 127.18 238.936 126.787 239.178 C 126.394 239.42 125.514 238.965 124.83 238.167 C 123.598 236.727 123.569 236.727 121.779 238.135 C 117.859 241.218 111.189 238.65 111.189 234.058 C 111.189 231.497 114.214 228.617 117.095 228.434 C 118.181 228.365 119.565 228.236 120.17 228.145 C 120.774 228.056 121.847 227.948 122.552 227.904 C 124.348 227.796 124.245 224.432 122.417 223.453 C 120.329 222.336 118.81 222.519 116.5 224.163 C 114.637 225.491 112.105 225.525 112.105 224.223 C 112.105 223.368 113.846 221.461 115.404 220.609 C 116.211 220.168 118.453 219.797 120.386 219.784 Z M 119.263 230.631 C 115.318 231.895 113.997 234.05 116.188 235.652 C 119.142 237.812 123.835 235.493 123.835 231.873 C 123.835 229.486 123.296 229.339 119.263 230.631 Z" stroke="none" fill-rule="evenodd" style="paint-order: fill; fill: #e7000b;"/><path d="M 82.78 220.282 C 80.464 221.134 79.115 222.989 79.115 225.322 C 79.115 228.474 80.44 229.675 85.136 230.775 C 87.268 231.275 89.425 232.011 89.928 232.411 C 92.747 234.647 88.679 237.233 84.508 235.856 C 83.154 235.409 82.047 234.74 82.047 234.367 C 82.047 233.426 79.309 233.518 78.714 234.479 C 78.447 234.912 78.975 236.062 79.888 237.034 C 84.24 241.666 94.51 239.036 94.51 233.29 C 94.51 231.008 91.692 228.78 87.546 227.783 C 85.53 227.298 83.385 226.429 82.78 225.853 C 81.806 224.924 81.843 224.684 83.104 223.75 C 85.061 222.299 88.104 222.428 90.196 224.052 C 92.075 225.51 93.777 225.384 93.777 223.786 C 93.777 221.9 90.064 219.759 86.897 219.82 C 85.238 219.852 83.385 220.06 82.78 220.282" stroke="none" fill-rule="evenodd" style="paint-order: fill; fill: #e7000b;"/><path d="M 40.536 220.832 C 40.289 221.476 40.225 225.172 40.394 229.044 C 40.682 235.637 40.83 236.194 42.721 237.82 C 45.06 239.831 48.022 240.053 50.391 238.393 C 51.47 237.637 52.362 237.469 52.937 237.913 C 53.424 238.288 54.4 238.801 55.105 239.053 C 56.286 239.474 56.388 238.724 56.388 229.585 C 56.388 219.712 56.379 219.662 54.738 219.894 C 53.225 220.11 53.086 220.524 53.051 224.894 C 52.994 232.27 52.809 233.501 51.571 234.739 C 50.192 236.117 46.604 236.258 45.555 234.975 C 45.142 234.471 44.662 230.924 44.488 227.093 C 44.193 220.622 44.058 220.112 42.578 219.894 C 41.631 219.754 40.803 220.134 40.536 220.832" stroke="none" fill-rule="evenodd" style="paint-order: fill; fill: #e7000b;"/><path d="M 100.067 215.493 C 99.901 216.026 99.562 217.384 99.315 218.509 C 99.068 219.635 98.613 220.399 98.303 220.207 C 97.993 220.016 97.295 220.134 96.751 220.47 C 95.364 221.327 96.36 223.428 98.153 223.428 C 99.539 223.428 99.642 223.883 99.642 229.997 C 99.642 235.855 99.82 236.733 101.283 238.095 C 103.564 240.221 107.247 239.849 107.585 237.459 C 107.754 236.263 107.527 235.836 106.852 236.076 C 106.314 236.268 105.296 236.129 104.591 235.766 C 103.531 235.222 103.308 234.088 103.308 229.267 L 103.308 223.428 L 105.507 223.428 C 107.193 223.428 107.706 223.096 107.706 222.01 C 107.706 221.009 107.115 220.525 105.69 220.36 C 104.007 220.167 103.613 219.707 103.308 217.571 C 102.935 214.966 100.683 213.522 100.067 215.493" stroke="none" fill-rule="evenodd" style="paint-order: fill; fill: #e7000b;"/><path d="M 271.193 213.164 L 277.01 213.164 C 280.209 213.164 283.756 213.516 284.891 213.946 C 291.998 216.639 294.881 225.799 290.904 233.052 C 288.418 237.584 285.57 238.821 277.608 238.822 L 271.193 238.823 Z M 275.68 217.089 C 275.089 217.802 274.877 220.921 275.017 226.831 L 275.225 235.524 L 279.381 235.509 C 284.066 235.491 286.105 234.211 287.789 230.233 C 289.738 225.629 288.537 220.47 284.976 218.146 C 282.38 216.451 276.742 215.811 275.68 217.089 Z" stroke="none" fill-rule="evenodd" style="paint-order: fill; fill: #e7000b;"/><path d="M 183.166 223.611 C 185.054 229.357 186.921 235.213 187.315 236.624 C 187.81 238.395 188.518 239.26 189.6 239.416 C 190.977 239.616 191.386 238.908 192.988 233.552 C 193.989 230.201 195.217 225.875 195.718 223.937 C 196.784 219.809 197.405 220.137 198.912 225.627 C 202.631 239.17 202.421 238.678 204.617 239 C 205.751 239.166 206.678 239.208 206.678 239.092 C 206.678 238.766 213.886 215.805 214.448 214.341 C 214.861 213.264 214.595 213.088 212.859 213.289 C 210.871 213.52 210.645 213.952 207.981 222.646 C 206.444 227.659 205.075 231.874 204.937 232.011 C 204.644 232.305 200.438 219.031 199.721 215.547 C 199.308 213.539 198.905 213.164 197.169 213.164 C 195.526 213.164 195.007 213.575 194.618 215.18 C 193.229 220.91 189.651 231.572 189.252 231.173 C 188.999 230.92 188.246 228.662 187.576 226.154 C 184.265 213.743 184.007 213.164 181.79 213.164 L 179.734 213.164 L 183.166 223.611" stroke="none" fill-rule="evenodd" style="paint-order: fill; fill: #e7000b;"/><path d="M 70.684 225.683 C 70.776 238.139 71.045 239.496 73.433 239.546 C 73.736 239.551 73.983 233.618 73.983 226.36 L 73.983 213.164 L 72.287 213.164 L 70.591 213.164 L 70.684 225.683" stroke="none" fill-rule="evenodd" style="paint-order: fill; fill: #e7000b;"/><path d="M 20.465 225.908 L 20.465 238.653 L 22.298000000000002 239.003 C 24.127 239.353 24.131 239.342 24.131 233.59 L 24.131 227.827 L 29.262 227.827 C 34.248 227.827 34.394 227.775 34.394 225.994 C 34.394 224.212 34.25 224.161 29.224 224.161 L 24.054 224.161 L 24.276 220.312 L 24.497 216.463 L 30.545 216.251 C 35.991 216.058 36.594 215.894 36.594 214.601 C 36.594 213.261 36.05 213.164 28.529 213.164 L 20.465 213.164 L 20.465 225.908" stroke="none" fill-rule="evenodd" style="paint-order: fill; fill: #e7000b;"/><path d="M 357.134 225.706 L 357.335 239.15 L 359.167 239.147 L 361 239.144 L 361 226.158 C 361 216.745 360.765 213.171 360.144 213.168 C 359.672 213.166 358.758 212.961 358.111 212.713 C 357.053 212.306 356.955 213.616 357.134 225.706" stroke="none" fill-rule="evenodd" style="paint-order: fill; fill: #e7000b;"/><path d="M 239.932 212.965 C 241.597 213.284 241.682 213.547 241.432 217.632 C 241.15 222.215 241.388 222.555 243.657 220.838 C 245.915 219.131 250.225 219.486 252.719 221.585 C 257.735 225.806 256.979 235.571 251.413 238.45 C 248.677 239.864 246.758 239.848 243.934 238.388 C 242.52 237.657 241.503 237.492 241.22 237.948 C 240.972 238.349 240.108 238.793 239.302 238.933 C 237.882 239.182 237.836 238.787 237.836 226.36 C 237.836 219.304 237.91 213.328 238.001 213.079 C 238.093 212.831 238.962 212.779 239.932 212.965 Z M 245.141 223.393 C 242.638 224.407 241.634 226.265 241.687 229.788 C 241.751 233.989 243.627 236.148 247.127 236.048 C 250.402 235.955 252.132 233.707 252.132 229.545 C 252.132 227.071 251.702 225.864 250.332 224.495 C 248.433 222.596 247.563 222.411 245.141 223.393 Z" stroke="none" fill-rule="evenodd" style="paint-order: fill; fill: #e7000b;"/><path d="M 153.16 225.491 C 153.16 237.905 153.241 238.674 154.584 239.025 C 156.583 239.548 156.826 239.085 156.826 234.747 C 156.826 229.051 158.395 228.942 161.805 234.403 C 164.207 238.25 164.802 238.761 166.913 238.79 L 169.303 238.823 L 166.583 234.608 C 165.087 232.289 163.261 229.703 162.526 228.86 C 161.21 227.352 161.247 227.273 164.872 223.882 C 166.898 221.987 168.556 220.285 168.556 220.099 C 168.556 219.914 167.611 219.762 166.457 219.762 C 164.88 219.762 163.493 220.687 160.884 223.475 C 158.974 225.518 157.31 227.085 157.186 226.958 C 157.062 226.831 156.848 223.593 156.71 219.762 C 156.473 213.186 156.367 212.784 154.81 212.563 L 153.16 212.329 L 153.16 225.491" stroke="none" fill-rule="evenodd" style="paint-order: fill; fill: #e7000b;"/><path d="M 61.941 213.138 C 61.829 213.354 61.895 219.402 62.088 226.58 C 62.399 238.109 62.578 239.601 63.629 239.4 C 64.665 239.2 64.844 237.465 65.018 225.958 C 65.214 212.971 65.191 212.746 63.681 212.746 C 62.836 212.746 62.053 212.922 61.941 213.138" stroke="none" fill-rule="evenodd" style="paint-order: fill; fill: #e7000b;"/></g><g><title>krokodil</title><path d="M 473.746 221.001 C 473.485 221.683 473.578 222.36 473.952 222.506 C 477.223 223.784 483.982 227.61 483.997 228.193 C 484.008 228.596 481.905 230.044 479.325 231.41 C 474.878 233.765 473.571 234.819 473.545 236.074 C 473.523 237.156 475.26 236.575 482.228 233.169 C 489.515 229.607 490.489 228.893 489.938 227.527 C 489.619 226.736 475.903 219.679 474.795 219.734 C 474.479 219.749 474.007 220.32 473.746 221.001" stroke="none" fill-rule="evenodd" style="fill: #9f9fa9;"/><path d="M 3.291 223.639 C -0.711 225.741 -3.985 227.79 -3.9859999999999998 228.193 C -3.987 229.203 10.79 236.799 11.682 236.249 C 13.26 235.274 12.2 233.957 8.184 231.902 C 0.41400000000000003 227.926 0.48400000000000004 228.269 6.802 225.143 C 10.645 223.242 12.401 221.964 12.401 221.068 C 12.401 219.129 11.277 219.446 3.291 223.639" stroke="none" fill-rule="evenodd" style="fill: #9f9fa9;"/><path d="M 464.796 216.28 C 464.051 217.993 461.588 223.426 459.324 228.351 C 457.059 233.277 455.206 237.671 455.206 238.116 C 455.206 238.561 455.897 238.82 456.741 238.691 C 457.919 238.511 459.199 236.414 462.252 229.659 C 464.439 224.821 466.884 219.542 467.684 217.929 C 469.525 214.221 469.516 213.164 467.643 213.164 C 466.589 213.164 465.754 214.078 464.796 216.28" stroke="none" fill-rule="evenodd" style="fill: #9f9fa9;"/></g></g></svg>